<?xml version="1.0" encoding="utf-8"?>
<!-- Generator: Adobe Illustrator 16.0.0, SVG Export Plug-In . SVG Version: 6.00 Build 0)  -->
<!DOCTYPE svg PUBLIC "-//W3C//DTD SVG 1.1//EN" "http://www.w3.org/Graphics/SVG/1.1/DTD/svg11.dtd">
<svg version="1.1" xmlns="http://www.w3.org/2000/svg" xmlns:xlink="http://www.w3.org/1999/xlink" x="0px" y="0px"
	 width="184.667px" height="214.667px" viewBox="0 0 184.667 214.667" enable-background="new 0 0 184.667 214.667"
	 xml:space="preserve">
<g id="Layer_1_copy_2">
	<path fill="#FFFFFF" stroke="#86D111" stroke-width="5" stroke-miterlimit="10" d="M172.186,31.047
		c-49.017,1.268-79.72-17.713-79.72-17.713s-30.704,18.981-79.72,17.713c0,0-14.623,88.352,79.72,167.62
		C186.807,119.398,172.186,31.047,172.186,31.047z"/>
</g>
<g id="Layer_1">
	<path fill="#86D111" d="M163.296,38.405c-43.551,1.126-70.83-15.738-70.83-15.738s-27.28,16.864-70.831,15.738
		c0,0-12.992,78.5,70.831,148.929C176.288,116.904,163.296,38.405,163.296,38.405z"/>
</g>
<g id="Layer_6" display="none">
</g>
<g id="Layer_8">
</g>
<g id="Layer_8_copy_2" display="none">
</g>
<g id="Layer_14">
	<g>
		<polygon fill="#FFFFFF" points="50.76,99.471 68.172,119.605 71.085,111.54 82.646,128.171 85.064,121.483 94.706,135.42 
			97.335,128.142 115.031,148.103 96.274,107.075 93.906,113.631 85.937,97.113 82.83,105.701 71.898,86.11 69.478,92.796 
			58.894,76.963 		"/>
	</g>
</g>
<g id="Layer_18" display="none">
	
		<rect x="85.166" y="91.992" transform="matrix(0.7071 -0.7071 0.7071 0.7071 -42.7272 93.4988)" display="inline" fill="#EE3838" width="12.667" height="12.667"/>
</g>
<g id="Layer_7">
	<g>
		<path fill="#FFFFFF" d="M75.18,151.331c-2.969,0-5.542-0.998-7.441-2.886c-4.346-4.319-2.843-10.806-2.777-11.08l0.134-0.555
			l38.537-38.012c-0.469-3.836-1.414-15.954,4.606-20.268c4.439-3.182,8.83-4.795,13.052-4.795c6.56,0,10.306,3.924,10.462,4.091
			l1.726,1.846l-14.055,8.051l1.12,7.481l5.047,4.05l14.385-7.591l0.728,2.272c0.082,0.255,1.927,6.335-4.371,14.647
			c-2.589,3.416-6.748,5.222-12.028,5.222c-3.108,0-5.902-0.617-7.438-1.035l-37.708,37.944l-0.477,0.147
			C78.527,150.909,77.106,151.331,75.18,151.331z"/>
		<path fill="#86D111" d="M121.292,75.735c5.768,0,9.001,3.458,9.001,3.458l-13.049,7.474l1.438,9.607l6.682,5.362l13.436-7.091
			c0,0,1.682,5.25-4.061,12.83c-2.644,3.488-6.76,4.429-10.435,4.429c-4.31,0-8.011-1.295-8.011-1.295L78.092,148.95
			c0,0-1.232,0.38-2.912,0.38c-1.818,0-4.161-0.446-6.031-2.304c-3.597-3.575-2.242-9.192-2.242-9.192L105.75,99.52
			c0,0-2.325-15.079,3.655-19.364C114.074,76.81,118.076,75.735,121.292,75.735 M121.292,71.735c-4.647,0-9.431,1.739-14.217,5.169
			c-6.446,4.619-6.077,16.026-5.542,21.156l-37.435,36.925l-0.812,0.801l-0.268,1.109c-0.699,2.899-0.789,8.893,3.311,12.967
			c2.283,2.269,5.343,3.467,8.851,3.467c2.173,0,3.79-0.465,4.092-0.559l0.954-0.294l0.703-0.708l36.557-36.785
			c1.723,0.399,4.168,0.82,6.818,0.82c5.931,0,10.641-2.08,13.622-6.013c6.802-8.978,4.919-15.726,4.683-16.466l-1.456-4.545
			l-4.221,2.228l-11.113,5.865l-3.412-2.739l-0.803-5.355l10.677-6.115l4.385-2.512l-3.451-3.691
			C132.761,75.977,128.584,71.735,121.292,71.735L121.292,71.735z"/>
	</g>
</g>
<g id="Layer_15">
	<g>
		<path fill="#FFFFFF" d="M34.208,63.694v-12h-4v-4h12v4h-4v12H34.208z"/>
		<path fill="#FFFFFF" d="M43.895,51.694v-4h12v4H43.895z M43.895,63.694v-10h10v4h-6v2h8v4H43.895z"/>
		<path fill="#FFFFFF" d="M57.583,51.694v-4h12v4H57.583z M57.583,63.694v-10h10v4h-6v2h8v4H57.583z"/>
		<path fill="#FFFFFF" d="M71.27,63.694v-16h4l4,8v-8h4v16h-4l-4-8v8H71.27z"/>
		<path fill="#FFFFFF" d="M84.958,63.694v-16h4v6h4v-6h4v16h-4v-6h-4v6H84.958z"/>
		<path fill="#FFFFFF" d="M98.645,63.694v-10h8v-1c0-0.271-0.1-0.505-0.297-0.703c-0.198-0.198-0.433-0.297-0.703-0.297h-7v-2
			c0-0.552,0.192-1.021,0.578-1.406c0.396-0.396,0.869-0.594,1.422-0.594h8c0.552,0,1.021,0.198,1.406,0.594
			c0.396,0.396,0.594,0.865,0.594,1.406v14h-4v-6h-4v6H98.645z"/>
		<path fill="#FFFFFF" d="M114.333,63.694c-0.562,0-1.037-0.192-1.422-0.578c-0.386-0.396-0.578-0.87-0.578-1.422v-12
			c0-0.552,0.192-1.021,0.578-1.406c0.396-0.396,0.869-0.594,1.422-0.594h8c0.552,0,1.021,0.198,1.406,0.594
			c0.396,0.396,0.594,0.865,0.594,1.406v4h-4v-1c0-0.271-0.1-0.505-0.297-0.703c-0.198-0.198-0.433-0.297-0.703-0.297h-2
			c-0.281,0-0.521,0.099-0.719,0.297c-0.188,0.198-0.281,0.433-0.281,0.703v6c0,0.281,0.094,0.521,0.281,0.719
			c0.197,0.188,0.438,0.281,0.719,0.281h2c0.271,0,0.505-0.094,0.703-0.281c0.197-0.198,0.297-0.438,0.297-0.719v-1h4v4
			c0,0.562-0.198,1.037-0.594,1.422c-0.396,0.386-0.865,0.578-1.406,0.578H114.333z"/>
		<path fill="#FFFFFF" d="M126.02,63.694v-16h4v16H126.02z M134.02,63.694l-4-8l4-8h4l-4,8l4,8H134.02z"/>
		<path fill="#FFFFFF" d="M139.708,51.694v-2c0-0.552,0.192-1.021,0.578-1.406c0.396-0.396,0.869-0.594,1.422-0.594h12v4H139.708z
			 M139.708,63.694v-4h7c0.271,0,0.505-0.094,0.703-0.281c0.197-0.198,0.297-0.438,0.297-0.719c0-0.271-0.1-0.505-0.297-0.703
			c-0.198-0.198-0.433-0.297-0.703-0.297h-5c-0.562,0-1.037-0.192-1.422-0.578c-0.386-0.396-0.578-0.87-0.578-1.422v-2h10
			c0.552,0,1.021,0.198,1.406,0.594c0.396,0.396,0.594,0.865,0.594,1.406v6c0,0.562-0.198,1.037-0.594,1.422
			c-0.396,0.386-0.865,0.578-1.406,0.578H139.708z"/>
	</g>
</g>
<g id="Layer_19">
</g>
<g id="Layer_15_copy" display="none">
	
		<text transform="matrix(1 0 0 1 33.2085 55.3608)" display="inline" fill="#FFFFFF" font-family="'PCapTerminal-Bold'" font-size="18">TEENHACKS</text>
</g>
<g id="Layer_15_copy_2" display="none">
	
		<text transform="matrix(1 0 0 1 25.3745 55.3608)" display="inline" fill="#FFFFFF" font-family="'EthnocentricRg-Regular'" font-size="16">TEENHACKS</text>
</g>
<g id="Layer_8_copy" display="none">
	<path d="M91.897,94.165L38.223,26.39c0.002,0,36.353,78.438,36.353,78.438s4.242,12.793,1.685,17.915l12.984-7.994l21.943,35.64
		c0,0,1.528,1.486,3.537,0.25c2.01-1.238,1.371-3.271,1.371-3.271l-21.945-35.64l12.983-7.994
		C101.408,103.711,91.897,94.165,91.897,94.165z"/>
	<g display="inline">
		<path fill="#FFFFFF" d="M119.346,134.206c-0.774,0-1.312-0.247-1.459-0.323l-0.207-0.107l-18.604-18.628l-12.475,12.455
			l2.08-6.099c1-2.931-1.618-8.913-2.684-10.919L52.056,64.647l2.1-2.097l45.891,34.003c0.722,0.378,5.718,2.921,9.36,2.921
			c0.606,0,1.131-0.074,1.559-0.219l6.104-2.071l-12.477,12.454l18.604,18.627l0.106,0.208c0.43,0.834,0.702,2.701-1.007,4.407
			C121.201,133.976,120.086,134.206,119.346,134.206z"/>
		<path d="M53.262,63.756l45.982,34.07c0,0,5.81,3.149,10.162,3.149c0.733,0,1.425-0.089,2.041-0.298l-8.977,8.961l19.498,19.524
			c0,0,0.655,1.271-0.733,2.658c-0.713,0.713-1.396,0.886-1.891,0.886c-0.468,0-0.769-0.155-0.769-0.155l-19.498-19.524
			l-8.977,8.962c1.456-4.268-2.833-12.208-2.833-12.208L53.262,63.756 M55.048,61.345l-4.199,4.193l33.875,45.846
			c1.458,2.777,3.224,7.626,2.539,9.634l-4.162,12.197l9.12-9.105l6.854-6.843l17.378,17.402l0.33,0.33l0.414,0.214
			c0.286,0.147,1.066,0.491,2.147,0.491c1.025,0,2.553-0.306,4.012-1.765c2.319-2.316,1.896-4.958,1.278-6.154l-0.214-0.415
			l-0.329-0.331l-17.378-17.4l6.853-6.841l9.122-9.106l-12.205,4.142c-0.188,0.063-0.526,0.139-1.077,0.139
			c-2.814,0-6.964-1.86-8.557-2.693L55.048,61.345L55.048,61.345z"/>
	</g>
</g>
<g id="Layer_11" display="none">
	<rect x="122.208" y="128.382" display="inline" fill="#C12F2E" width="12.072" height="14.697"/>
</g>
<g id="Layer_1_copy" display="none">
	<path display="inline" stroke="#231F20" stroke-miterlimit="10" d="M69,22.667c0,0-18.334,11.334-47.603,10.577
		c0,0-8.731,52.757,47.603,100.09V22.667z"/>
	<path display="inline" stroke="#231F20" stroke-miterlimit="10" d="M69,22.667c0,0,18.334,11.334,47.603,10.577
		c0,0,8.731,52.757-47.603,100.09V22.667z"/>
</g>
<g id="Layer_2" display="none">
	<path display="inline" stroke="#231F20" stroke-miterlimit="10" d="M215.667,22.667c0,0-18.676,14.739-47.944,13.982
		c0,0-8.39,49.352,47.944,96.685V22.667z"/>
</g>
<g id="Layer_3" display="none">
	<path display="inline" stroke="#231F20" stroke-miterlimit="10" d="M69,164c0,0-18.334,11.334-47.603,10.577
		c0,0-8.731,37.423,47.603,84.756V164z"/>
	<path display="inline" stroke="#231F20" stroke-miterlimit="10" d="M69,164c0,0,18.334,11.334,47.603,10.577
		c0,0,8.731,37.423-47.603,84.756V164z"/>
</g>
<g id="Layer_12" display="none">
	<g display="inline">
		<g>
			<polygon fill="#FFFFFF" points="92.657,108.423 83.864,125.167 44.091,52.4 82.731,89.998 91.535,75.563 132.427,146.355 			"/>
			<path d="M54.25,65.772l28.984,28.203l8.242-13.516l30.078,52.07l-29.57-28.203l-8.164,15.547L54.25,65.772 M33.934,39.027
				L49.862,68.17l29.57,54.102l4.476,8.188l4.339-8.262l5.083-9.679l24.773,23.628l25.197,24.032l-17.416-30.151l-30.078-52.07
				l-4.214-7.293l-4.385,7.191l-4.979,8.165L57.736,62.189L33.934,39.027L33.934,39.027z"/>
		</g>
	</g>
</g>
<g id="Layer_13" display="none">
</g>
</svg>
