<?xml version="1.0" encoding="utf-8"?>
<!-- Generator: Adobe Illustrator 16.0.0, SVG Export Plug-In . SVG Version: 6.00 Build 0)  -->
<!DOCTYPE svg PUBLIC "-//W3C//DTD SVG 1.1//EN" "http://www.w3.org/Graphics/SVG/1.1/DTD/svg11.dtd">
<svg version="1.1" id="Layer_1" xmlns="http://www.w3.org/2000/svg" xmlns:xlink="http://www.w3.org/1999/xlink" x="0px" y="0px"
	 width="688.888px" height="84.96px" viewBox="0 0 688.888 84.96" enable-background="new 0 0 688.888 84.96" xml:space="preserve">
<g>
	<path fill="#FFFFFF" d="M23.861,17.16H0.581V2.4h63.36v14.76h-23.28V84h-16.8V17.16z"/>
	<path fill="#FFFFFF" d="M76.3,2.4h54v14.76H93.1v25.92h32.76v14.4H93.1v11.76h38.88V84H76.3V2.4z"/>
	<path fill="#FFFFFF" d="M147.58,2.4h54v14.76h-37.2v25.92h32.76v14.4h-32.76v11.76h38.88V84h-55.68V2.4z"/>
	<path fill="#FFFFFF" d="M243.099,46.08c-1.041-0.96-2.121-2.08-3.24-3.36c-1.121-1.279-2.16-2.479-3.12-3.6
		c-1.121-1.359-2.241-2.76-3.36-4.2c0.159,1.761,0.36,3.521,0.6,5.28c0.159,1.521,0.3,3.141,0.42,4.86
		c0.12,1.721,0.18,3.3,0.18,4.74V84h-15.72V1.68h1.68l41.16,38.64c0.96,0.96,1.999,2.082,3.12,3.36c1.12,1.28,2.16,2.48,3.12,3.6
		c1.119,1.361,2.239,2.76,3.36,4.2c-0.24-1.759-0.44-3.52-0.6-5.28c-0.161-1.519-0.281-3.139-0.36-4.86
		c-0.081-1.719-0.12-3.3-0.12-4.74V2.4h15.719v82.32h-1.68L243.099,46.08z"/>
	<path fill="#FFFFFF" d="M306.818,2.4h4.92v48.12h47.52V2.4h4.92V84h-4.92V54.84h-47.52V84h-4.92V2.4z"/>
	<path fill="#FFFFFF" d="M379.176,84l28.561-67.8h4.8l3.24-7.68h6.24l3.6-8.52h7.68l3.48,8.52h4.319L472.897,84h-22.08l-5.88-14.04
		h-31.801L407.617,84H379.176z M406.657,82.56l5.04-12.6h-15.72l7.68-18.12h-5.76l14.04-34.2h-3.24l-27.36,64.92H406.657z
		 M412.176,68.52l3.601-9h24.96l-3.24-7.68h-32.28l-7.08,16.68H412.176z M400.056,50.4h4.2l13.8-32.76h-4.56L400.056,50.4z
		 M405.817,50.4h31.08l-13.44-32.76h-3.84L405.817,50.4z M444.336,68.52l-3.12-7.56h-24.479l-3,7.56H444.336z M421.417,9.96h-4.68
		l-2.641,6.24h4.681L421.417,9.96z M456.336,59.52L435.937,9.96h-12.96l-2.761,6.24h4.2l14.04,34.2h7.561l3.72,9.12H456.336z
		 M435.336,8.52l-3-7.08h-5.76l-3,7.08H435.336z M470.857,82.56l-30.721-72.6h-2.76l21,51h-8.04l3.72,9h-7.56l5.16,12.6H470.857z
		 M445.056,51.84h-6l3.12,7.68h6L445.056,51.84z M451.897,68.52l-3.12-7.56h-6l3.12,7.56H451.897z"/>
	<path fill="#FFFFFF" d="M524.375,84.96c-5.76,0-11.181-1.02-16.26-3.06c-5.081-2.04-9.5-4.878-13.26-8.52
		c-3.762-3.639-6.74-8.019-8.94-13.14c-2.201-5.119-3.3-10.8-3.3-17.04c0-6.24,1.099-11.919,3.3-17.04
		c2.2-5.119,5.179-9.499,8.94-13.14c3.76-3.639,8.179-6.48,13.26-8.52c5.079-2.04,10.5-3.06,16.26-3.06
		c7.2,0,13.54,1.301,19.021,3.9c5.479,2.601,9.939,6.42,13.38,11.46l-3.72,2.76c-3.042-4.32-6.96-7.699-11.761-10.14
		c-4.8-2.439-10.439-3.66-16.92-3.66c-5.279,0-10.16,0.943-14.64,2.83c-4.481,1.886-8.36,4.496-11.64,7.826
		c-3.281,3.33-5.841,7.283-7.681,11.857c-1.841,4.575-2.76,9.549-2.76,14.927c0,5.377,0.919,10.354,2.76,14.929
		c1.84,4.575,4.399,8.527,7.681,11.857c3.279,3.33,7.158,5.938,11.64,7.824c4.479,1.886,9.36,2.83,14.64,2.83
		c6.319,0,12.02-1.26,17.101-3.78c5.079-2.52,9.259-6.099,12.54-10.74l3.72,2.64c-3.6,5.28-8.28,9.3-14.04,12.06
		C537.936,83.58,531.496,84.96,524.375,84.96z"/>
	<path fill="#FFFFFF" d="M580.294,55.2c0.88-1.44,1.8-3,2.76-4.68s1.681-2.839,2.16-3.48l35.28-44.64h5.52l-31.68,40.56l34.8,41.04
		h-6.12l-31.8-37.56l-10.439,12.84V84h-4.92V2.4h4.92v43.56c0,1.761-0.061,3.521-0.181,5.28C580.475,53,580.374,54.321,580.294,55.2
		z"/>
	<path fill="#FFFFFF" d="M664.654,84.96c-3.84,0-7.241-0.461-10.2-1.38c-2.96-0.919-5.561-2.16-7.8-3.72
		c-2.24-1.56-4.121-3.3-5.64-5.22c-1.521-1.92-2.761-3.919-3.721-6l4.2-2.04c0.96,1.841,2.08,3.6,3.36,5.28
		c1.278,1.68,2.839,3.161,4.68,4.44c1.84,1.281,3.979,2.321,6.42,3.12c2.439,0.801,5.299,1.2,8.58,1.2c2.641,0,5.14-0.379,7.5-1.14
		c2.359-0.759,4.42-1.86,6.181-3.3c1.758-1.44,3.159-3.18,4.199-5.22c1.039-2.04,1.561-4.339,1.561-6.9
		c0-4.719-1.365-8.56-4.094-11.52c-2.728-2.959-6.939-5.76-12.635-8.4l-7.583-3.48c-2.888-1.279-5.395-2.62-7.521-4.02
		c-2.126-1.399-3.893-2.919-5.297-4.56c-1.404-1.639-2.468-3.48-3.189-5.52s-1.082-4.339-1.082-6.9c0-2.799,0.521-5.34,1.563-7.62
		c1.043-2.28,2.488-4.2,4.334-5.76c1.845-1.56,3.971-2.76,6.378-3.6c2.408-0.84,5.014-1.26,7.823-1.26
		c2.728,0,5.175,0.321,7.342,0.96c2.166,0.641,4.092,1.5,5.777,2.58c1.684,1.08,3.169,2.34,4.453,3.78
		c1.282,1.44,2.405,2.921,3.369,4.44l-3.866,2.52c-1.691-2.719-3.846-5.059-6.463-7.02c-2.617-1.959-6.18-2.94-10.689-2.94
		c-4.834,0-8.599,1.26-11.295,3.78c-2.698,2.52-4.047,5.861-4.047,10.02c0,2.081,0.261,3.9,0.782,5.46s1.363,2.981,2.527,4.26
		c1.163,1.281,2.627,2.481,4.394,3.6c1.765,1.122,3.93,2.28,6.499,3.48l7.582,3.48c6.658,3.042,11.591,6.42,14.802,10.14
		c3.21,3.72,4.814,8.42,4.814,14.1c0,3.201-0.585,6.081-1.755,8.64c-1.17,2.561-2.811,4.74-4.92,6.54
		c-2.111,1.8-4.646,3.201-7.605,4.2C671.414,84.459,668.173,84.96,664.654,84.96z"/>
</g>
</svg>
